<svg width="61" height="61" viewBox="0 0 61 61" fill="none" xmlns="http://www.w3.org/2000/svg">
<path d="M27.2588 60.5C26.6575 60.4999 26.1833 60.3071 25.7969 59.9277L1.82324 33.5654L1.81543 33.5557L1.80566 33.5469C0.86143 32.6099 0.5 31.874 0.5 31.3252C0.500073 30.7386 0.764288 30.1381 1.39063 29.5166L1.53809 29.3701V29.3428L25.4775 0.980469C25.8552 0.668904 26.3338 0.500049 26.9473 0.5C27.5608 0.5 28.5848 0.786648 30.0693 1.4375C31.4835 2.05752 32.6256 2.94948 33.5059 4.11621L33.8262 4.55273C34.1228 4.97167 34.3498 5.33835 34.5117 5.65332C34.733 6.08382 34.8076 6.37201 34.8076 6.54395C34.8076 6.99167 34.6541 7.3642 34.332 7.68555L34.3232 7.69336L34.3145 7.70312L13.3389 30.7832L13.0215 31.1318L13.3516 31.4687L34.6387 53.21L34.6445 53.2148L34.7568 53.3369C35.0013 53.6274 35.1191 53.9608 35.1191 54.3525C35.1191 54.5257 35.0446 54.8198 34.8223 55.2607C34.6055 55.6906 34.2717 56.2158 33.8135 56.8389C32.9325 58.0368 31.794 58.9432 30.3818 59.5615L30.3809 59.5625C28.8963 60.2134 27.8723 60.5 27.2588 60.5ZM52.6396 60.5C52.0383 60.5 51.5642 60.3071 51.1777 59.9277L27.2041 33.5654L27.1953 33.5557L27.1865 33.5469C26.2423 32.6099 25.8809 31.874 25.8809 31.3252C25.8809 30.7386 26.1451 30.1381 26.7715 29.5166L26.7871 29.501L26.8008 29.4844L50.8604 0.981445C51.2377 0.670863 51.7157 0.501974 52.3281 0.501953H52.3643C52.9815 0.512861 53.9943 0.799191 55.4502 1.4375C56.8643 2.05752 58.0065 2.94948 58.8867 4.11621C59.3444 4.72174 59.6767 5.2333 59.8926 5.65332C60.1139 6.08382 60.1885 6.37201 60.1885 6.54395C60.1885 6.9917 60.034 7.36418 59.7119 7.68555L59.7041 7.69336L59.6953 7.70312L38.7197 30.7832L38.4023 31.1318L38.7324 31.4687L60.0195 53.21L60.0244 53.2148L60.1377 53.3369C60.3821 53.6274 60.4999 53.9608 60.5 54.3525C60.5 54.5257 60.4245 54.8198 60.2021 55.2607C59.9854 55.6905 59.6525 56.2159 59.1943 56.8389C58.3132 58.037 57.1741 58.9432 55.7617 59.5615V59.5625C54.2771 60.2134 53.2532 60.5 52.6396 60.5Z" stroke="#EA580C"/>
</svg>
